<svg xmlns="http://www.w3.org/2000/svg" viewBox="0 0 672 354" width="672" height="354" font-family="system-ui,-apple-system,Segoe UI,Helvetica,sans-serif" role="img" aria-label="Compile time vs design size (log–log)"><title>Compile time vs design size (log–log)</title><style>.f-bg{fill:#fcfcfb}.k-bg{stroke:#fcfcfb}.f-fg{fill:#0b0b0b}.k-fg{stroke:#0b0b0b}.f-mut{fill:#52514e}.k-mut{stroke:#52514e}.f-line{fill:#dcdbd6}.k-line{stroke:#dcdbd6}.f-s1{fill:#2a78d6}.k-s1{stroke:#2a78d6}.f-s2{fill:#eb6834}.k-s2{stroke:#eb6834}.f-s3{fill:#1baf7a}.k-s3{stroke:#1baf7a}.f-s4{fill:#eda100}.k-s4{stroke:#eda100}.f-s5{fill:#e87ba4}.k-s5{stroke:#e87ba4}.f-s6{fill:#008300}.k-s6{stroke:#008300}.f-s7{fill:#4a3aa7}.k-s7{stroke:#4a3aa7}.f-s8{fill:#e34948}.k-s8{stroke:#e34948}.bg{fill:#fcfcfb}.t{fill:#0b0b0b}.lab{fill:#52514e}.val{fill:#0b0b0b}.axis{stroke:#52514e}.grid{stroke:#dcdbd6}.t{font-size:15px;font-weight:600}.lab,.val{font-size:11px}@media (prefers-color-scheme:dark){.f-bg{fill:#1a1a19}.k-bg{stroke:#1a1a19}.f-fg{fill:#ffffff}.k-fg{stroke:#ffffff}.f-mut{fill:#c3c2b7}.k-mut{stroke:#c3c2b7}.f-line{fill:#3a3a37}.k-line{stroke:#3a3a37}.f-s1{fill:#3987e5}.k-s1{stroke:#3987e5}.f-s2{fill:#d95926}.k-s2{stroke:#d95926}.f-s3{fill:#199e70}.k-s3{stroke:#199e70}.f-s4{fill:#c98500}.k-s4{stroke:#c98500}.f-s5{fill:#d55181}.k-s5{stroke:#d55181}.f-s6{fill:#008300}.k-s6{stroke:#008300}.f-s7{fill:#9085e9}.k-s7{stroke:#9085e9}.f-s8{fill:#e66767}.k-s8{stroke:#e66767}.bg{fill:#1a1a19}.t{fill:#ffffff}.lab{fill:#c3c2b7}.val{fill:#ffffff}.axis{stroke:#c3c2b7}.grid{stroke:#3a3a37}}</style><rect class="bg" width="100%" height="100%" rx="8"/><text class="t" x="16" y="26">Compile time vs design size (log–log)</text><text class="lab" x="16" y="44">VerA 67ee9796 · 2026-10-04 · measured by tools/report.py</text><rect class="f-s1" x="16" y="58" width="10" height="10" rx="2" /><text x="30" y="67" class="lab">contrib</text><rect class="f-s2" x="83.4" y="58" width="10" height="10" rx="2" /><text x="97.4" y="67" class="lab">vals</text><rect class="f-s3" x="132.2" y="58" width="10" height="10" rx="2" /><text x="146.2" y="67" class="lab">inst</text><g transform="translate(16,72)"><line x1="60" x2="630" y1="230.0" y2="230.0" class="grid"/><text x="56" y="234.0" class="lab" text-anchor="end">100 µs</text><line x1="60" x2="630" y1="156.7" y2="156.7" class="grid"/><text x="56" y="160.7" class="lab" text-anchor="end">1 ms</text><line x1="60" x2="630" y1="83.3" y2="83.3" class="grid"/><text x="56" y="87.3" class="lab" text-anchor="end">10 ms</text><line x1="60" x2="630" y1="10.0" y2="10.0" class="grid"/><text x="56" y="14.0" class="lab" text-anchor="end">100 ms</text><text x="60.0" y="246" class="lab" text-anchor="middle">1</text><text x="197.5" y="246" class="lab" text-anchor="middle">8</text><text x="335.0" y="246" class="lab" text-anchor="middle">64</text><text x="472.5" y="246" class="lab" text-anchor="middle">512</text><text x="610.0" y="246" class="lab" text-anchor="middle">4096</text><text x="350.0" y="266" class="lab" text-anchor="middle">n (generated size along each axis)</text><path class="k-s1" d="M60.0,211.8 L197.5,188.9 L335.0,166.4 L472.5,113.7 L610.0,61.8" fill="none"  stroke-width="2"/><circle class="f-s1 k-bg" cx="60.0" cy="211.8" r="4"   stroke-width="2"><title>contrib, n=1: 177 µs</title></circle><circle class="f-s1 k-bg" cx="197.5" cy="188.9" r="4"   stroke-width="2"><title>contrib, n=8: 363 µs</title></circle><circle class="f-s1 k-bg" cx="335.0" cy="166.4" r="4"   stroke-width="2"><title>contrib, n=64: 736 µs</title></circle><circle class="f-s1 k-bg" cx="472.5" cy="113.7" r="4"   stroke-width="2"><title>contrib, n=512: 3.85 ms</title></circle><circle class="f-s1 k-bg" cx="610.0" cy="61.8" r="4"   stroke-width="2"><title>contrib, n=4096: 19.7 ms</title></circle><path class="k-s2" d="M60.0,209.0 L197.5,208.3 L335.0,180.6 L472.5,125.7 L610.0,59.4" fill="none"  stroke-width="2"/><circle class="f-s2 k-bg" cx="60.0" cy="209.0" r="4"   stroke-width="2"><title>vals, n=1: 193 µs</title></circle><circle class="f-s2 k-bg" cx="197.5" cy="208.3" r="4"   stroke-width="2"><title>vals, n=8: 198 µs</title></circle><circle class="f-s2 k-bg" cx="335.0" cy="180.6" r="4"   stroke-width="2"><title>vals, n=64: 472 µs</title></circle><circle class="f-s2 k-bg" cx="472.5" cy="125.7" r="4"   stroke-width="2"><title>vals, n=512: 2.64 ms</title></circle><circle class="f-s2 k-bg" cx="610.0" cy="59.4" r="4"   stroke-width="2"><title>vals, n=4096: 21.2 ms</title></circle><path class="k-s3" d="M60.0,210.3 L197.5,197.8 L335.0,157.4 L472.5,98.1 L610.0,26.4" fill="none"  stroke-width="2"/><circle class="f-s3 k-bg" cx="60.0" cy="210.3" r="4"   stroke-width="2"><title>inst, n=1: 185 µs</title></circle><circle class="f-s3 k-bg" cx="197.5" cy="197.8" r="4"   stroke-width="2"><title>inst, n=8: 275 µs</title></circle><circle class="f-s3 k-bg" cx="335.0" cy="157.4" r="4"   stroke-width="2"><title>inst, n=64: 977 µs</title></circle><circle class="f-s3 k-bg" cx="472.5" cy="98.1" r="4"   stroke-width="2"><title>inst, n=512: 6.29 ms</title></circle><circle class="f-s3 k-bg" cx="610.0" cy="26.4" r="4"   stroke-width="2"><title>inst, n=4096: 59.8 ms</title></circle></g></svg>
